<?xml version="1.0" encoding="iso-8859-1"?><!DOCTYPE html> <svg id=Capa_1 style="enable-background:new 0 0 242.667 242.667"version=1.1 viewBox="0 0 242.667 242.667"x=0px xml:space=preserve xmlns=http://www.w3.org/2000/svg xmlns:xlink=http://www.w3.org/1999/xlink y=0px><path d="M0,0v242.667h242.667V0H0z M70.216,192.128c-11.34,0-20.533-9.193-20.533-20.533s9.193-20.533,20.533-20.533
	s20.533,9.193,20.533,20.533S81.556,192.128,70.216,192.128z M142.426,192.128h-26.524c0.055-1.063,0.084-2.132,0.084-3.208
	c0-33.901-27.482-61.384-61.384-61.384c-1.658,0-3.295,0.085-4.919,0.214v-26.591c1.629-0.09,3.268-0.144,4.919-0.144
	c48.549,0,87.905,39.356,87.905,87.905C142.508,189.996,142.465,191.061,142.426,192.128z M192.902,192.128h-29.204
	c0.031-1.068,0.081-2.132,0.081-3.208c0-60.296-48.88-109.176-109.176-109.176c-1.65,0-3.287,0.052-4.919,0.124V50.663
	c1.636-0.057,3.27-0.124,4.919-0.124c76.425,0,138.381,61.955,138.381,138.381C192.983,189.996,192.927,191.058,192.902,192.128z"/><g></g><g></g><g></g><g></g><g></g><g></g><g></g><g></g><g></g><g></g><g></g><g></g><g></g><g></g><g></g></svg>